<?xml version="1.0" encoding="utf-8"?>
<!-- Generator: Adobe Illustrator 21.1.0, SVG Export Plug-In . SVG Version: 6.00 Build 0)  -->
<svg version="1.1" id="Layer_1" xmlns="http://www.w3.org/2000/svg" xmlns:xlink="http://www.w3.org/1999/xlink" x="0px" y="0px"
	 viewBox="0 0 260 64" style="enable-background:new 0 0 260 64;" xml:space="preserve">
<style type="text/css">
	.st0{fill:#0598A7;}
	.st1{fill:#00263D;}
</style>
<g>
	<path class="st0" d="M94.5,31.9c5.7,0.9,8.1,6,8.1,10c0,6.1-3.6,12.4-13.8,12.4H70.3v-42h17.2c7.8,0,12.9,4.5,12.9,11.3
		C100.4,25.9,99.2,30.5,94.5,31.9z M86.1,28.5c2.1,0,3.5-1.3,3.5-3.5c0-2.2-1-3.8-3.4-3.8h-5.6v7.3H86.1z M80.6,36.9v8.5h6.5
		c3.2,0,4.7-2.2,4.7-4.3c0-2-1.3-4.2-4.8-4.2H80.6z"/>
</g>
<g>
	<path class="st0" d="M134,42.8h-20.4c0.4,2.7,3.4,4.3,6.5,4.3c1.6,0,3.8-0.4,5.4-2.4c1.2,0.9,5.1,3.7,6.7,4.8
		c-3,4-8.4,5.3-12.9,5.3c-8.2,0-15.1-6-15.1-14.9c0-9,7-14.8,15.1-14.8c8.1,0,14.8,5.5,14.8,14.5C134.2,40.4,134.1,42,134,42.8z
		 M125,37.3c-0.9-3.7-4.2-4.2-5.7-4.2s-4.9,0.5-5.7,4.2H125z"/>
</g>
<g>
	<path class="st1" d="M164.8,31.9c5.7,0.9,8.1,6,8.1,10c0,6.1-3.6,12.4-13.8,12.4h-18.4v-42h17.2c7.8,0,12.9,4.5,12.9,11.3
		C170.7,25.9,169.5,30.5,164.8,31.9z M156.4,28.5c2.1,0,3.5-1.3,3.5-3.5c0-2.2-1-3.8-3.4-3.8h-5.6v7.3H156.4z M150.9,36.9v8.5h6.5
		c3.2,0,4.7-2.2,4.7-4.3c0-2-1.3-4.2-4.8-4.2H150.9z"/>
</g>
<g>
	<path class="st1" d="M174.7,40c0-9,7.1-14.9,15.1-14.9c8.1,0,15.2,5.9,15.2,14.9c0,9-7.1,14.8-15.2,14.8
		C181.7,54.8,174.7,49,174.7,40z M189.7,45.9c3.2,0,5.9-2.7,5.9-5.9s-2.7-5.9-5.9-5.9s-5.9,2.7-5.9,5.9S186.5,45.9,189.7,45.9z"/>
</g>
<g>
	<path class="st1" d="M206.7,10.9h9.7v43.4h-9.7V10.9z"/>
</g>
<g>
	<path class="st1" d="M239.9,10.9h9.7v43.4h-9.1v-4.1c-1.6,3.4-5.3,4.6-8.4,4.6c-7,0-13.8-5.6-13.8-14.8c0-9.2,6.8-14.9,13.8-14.9
		c3.4,0,6,1.3,7.9,3.4V10.9z M233.9,46c3.2,0,5.9-2.7,5.9-5.9c0-3.2-2.7-5.9-5.9-5.9s-5.9,2.7-5.9,5.9C228,43.3,230.7,46,233.9,46z"
		/>
</g>
<g>
	<g>
		<path class="st0" d="M55.1,27.8c0,3.9-3.2,7.1-7.1,7.1c-3.9,0-7.1-3.2-7.1-7.1c0-3.9,3.2-7.1,7.1-7.1
			C51.9,20.7,55.1,23.9,55.1,27.8"/>
	</g>
	<g>
		<path class="st0" d="M30.8,47.8c0,3.9-3.2,7.1-7.1,7.1c-3.9,0-7.1-3.2-7.1-7.1c0-3.9,3.2-7.1,7.1-7.1
			C27.7,40.7,30.8,43.9,30.8,47.8"/>
	</g>
	<g>
		<path class="st1" d="M30.1,19.1c0,5.5-4.5,10-10,10c-5.5,0-10-4.5-10-10c0-5.5,4.5-10,10-10C25.6,9.1,30.1,13.6,30.1,19.1"/>
	</g>
</g>
</svg>
